<?xml version="1.0" encoding="UTF-8"?>
<svg version="1.1" xmlns="http://www.w3.org/2000/svg" width="225" height="225">
<path d="M0 0 C74.25 0 148.5 0 225 0 C225 74.25 225 148.5 225 225 C150.75 225 76.5 225 0 225 C0 150.75 0 76.5 0 0 Z " fill="#FFFDFC" transform="translate(0,0)"/>
<path d="M0 0 C74.25 0 148.5 0 225 0 C225 74.25 225 148.5 225 225 C150.75 225 76.5 225 0 225 C0 150.75 0 76.5 0 0 Z M66 26 C65.08734375 26.51175781 64.1746875 27.02351563 63.234375 27.55078125 C47.62506882 36.89406595 34.48500127 49.83001187 26 66 C25.48695312 66.97324219 24.97390625 67.94648437 24.4453125 68.94921875 C12.85491626 92.38949771 12.52129819 118.09047744 20.16796875 142.76953125 C27.73700358 163.41903403 41.37792734 181.1821462 60 193 C61.11375 193.76570313 61.11375 193.76570313 62.25 194.546875 C67.40218451 197.92364458 72.72603656 200.18818672 78.5 202.25 C79.18779541 202.4962915 79.87559082 202.74258301 80.58422852 202.99633789 C106.54596933 211.85214556 133.79415794 207.57942167 158 196 C179.06847835 185.11286381 195.14665863 164.38639557 202.7109375 142.24609375 C206.27104563 131.00869277 207.24628952 119.74479275 207.3125 108 C207.31813965 107.05697021 207.3237793 106.11394043 207.32958984 105.14233398 C207.21187796 93.83500986 204.29957725 84.39501451 200 74 C199.6803125 73.19433594 199.360625 72.38867188 199.03125 71.55859375 C189.78712894 49.28504344 170.37605148 32.12149845 148.6796875 22.41796875 C121.90377809 12.09986353 91.49036498 11.41864715 66 26 Z " fill="#FFFDFD" transform="translate(0,0)"/>
<path d="M0 0 C1.07894531 0.30035156 2.15789062 0.60070312 3.26953125 0.91015625 C24.68092697 7.39250541 43.00933871 22.30216141 55 41 C55.43699219 41.60714844 55.87398437 42.21429688 56.32421875 42.83984375 C60.95798913 49.52007423 63.3366335 57.38402564 66 65 C66.36738281 66.00804688 66.73476562 67.01609375 67.11328125 68.0546875 C74.01159588 90.96803214 68.18808641 118.06692214 58 139 C50.97013862 151.99282072 40.02636307 163.49115162 28 172 C27.29359375 172.50660156 26.5871875 173.01320312 25.859375 173.53515625 C9.19041833 184.46323099 -8.61102093 188.08643103 -28.1875 188.25 C-29.84579834 188.26450195 -29.84579834 188.26450195 -31.53759766 188.27929688 C-56.77086262 188.17332246 -78.38772988 176.41493376 -96 159 C-109.31808495 145.50009819 -116.79672804 129.34889874 -121 111 C-121.226875 110.07703125 -121.45375 109.1540625 -121.6875 108.203125 C-124.11200539 97.09080862 -124.08935166 84.93701507 -121 74 C-120.75507812 72.8346875 -120.51015625 71.669375 -120.2578125 70.46875 C-117.08365815 55.60459664 -110.61473722 42.7982367 -101 31 C-99.98679687 29.74123047 -99.98679687 29.74123047 -98.953125 28.45703125 C-90.40773844 18.3990489 -79.88354553 10.70204706 -68 5 C-67.12601563 4.56042969 -66.25203125 4.12085938 -65.3515625 3.66796875 C-44.61132526 -5.94690314 -21.61333646 -6.35951443 0 0 Z M-50 11 C-50.83917969 11.20496094 -51.67835937 11.40992188 -52.54296875 11.62109375 C-64.69495515 14.7315386 -74.78959736 21.70500435 -84 30 C-84.78117187 30.68707031 -85.56234375 31.37414062 -86.3671875 32.08203125 C-92.94079305 38.21208902 -97.46030614 45.3209614 -102 53 C-102.433125 53.72058594 -102.86625 54.44117188 -103.3125 55.18359375 C-113.63941753 73.94147129 -113.17126075 98.41750245 -107.796875 118.55859375 C-101.56619427 138.97532904 -86.03358369 156.79090847 -67.44921875 167 C-46.48688638 178.03591894 -24.40591706 179.7484325 -1.5625 173.3125 C10.04133457 169.51462661 19.80565249 163.97720669 29 156 C29.80566406 155.39285156 30.61132812 154.78570312 31.44140625 154.16015625 C44.37219802 143.2430145 51.84315127 127.04251166 56 111 C56.22558594 110.195625 56.45117188 109.39125 56.68359375 108.5625 C61.39964082 89.30801818 57.0495967 66.45799672 46.99511719 49.64916992 C39.61839766 37.96507645 30.60001543 28.58528255 19 21 C18.25878906 20.46890625 17.51757812 19.9378125 16.75390625 19.390625 C8.70965627 13.98131998 -0.74825341 11.58149645 -10 9 C-10.64412842 8.81445557 -11.28825684 8.62891113 -11.9519043 8.43774414 C-23.98513149 5.8658552 -38.36255616 7.37908766 -50 11 Z " fill="#FF2E06" transform="translate(138,19)"/>
<path d="M0 0 C0 3.63 0 7.26 0 11 C-0.82242188 11.18175781 -1.64484375 11.36351562 -2.4921875 11.55078125 C-6.00145655 12.34097463 -9.5017424 13.16244389 -13 14 C-13.86882812 14.20496094 -14.73765625 14.40992188 -15.6328125 14.62109375 C-27.75269345 17.84106212 -37.76952396 24.71140927 -47 33 C-48.06154297 33.92039062 -48.06154297 33.92039062 -49.14453125 34.859375 C-55.42028629 40.65237966 -59.66417305 47.71924504 -64 55 C-64.43441406 55.721875 -64.86882812 56.44375 -65.31640625 57.1875 C-75.63123398 75.95644144 -75.17318345 100.41029693 -69.796875 120.55859375 C-63.73569264 140.41991565 -48.97448954 157.79220877 -31 168 C-20.78216639 173.29260269 -10.34157136 176.26657206 1 178 C0.67 178.66 0.34 179.32 0 180 C-0.0689472 181.37342831 -0.08467708 182.75002102 -0.0625 184.125 C-0.041875 185.40375 -0.02125 186.6825 0 188 C1.98 188.99 1.98 188.99 4 190 C-16.94913051 190.77589372 -37.96969725 180.54047542 -53.1875 166.625 C-69.33590752 151.48313279 -79.04131285 134.6465766 -84 113 C-84.226875 112.07703125 -84.45375 111.1540625 -84.6875 110.203125 C-87.11200539 99.09080862 -87.08935166 86.93701507 -84 76 C-83.75507812 74.8346875 -83.51015625 73.669375 -83.2578125 72.46875 C-80.08365815 57.60459664 -73.61473722 44.7982367 -64 33 C-62.98679687 31.74123047 -62.98679687 31.74123047 -61.953125 30.45703125 C-53.41874194 20.4120001 -42.88437778 12.67054597 -31 7 C-30.05640625 6.54882812 -29.1128125 6.09765625 -28.140625 5.6328125 C-19.31794158 1.68827944 -9.65136056 -1.93027211 0 0 Z " fill="#FE7A06" transform="translate(101,17)"/>
<path d="M0 0 C2.23522402 1.65409244 2.92720093 2.52690629 3.35449219 5.30371094 C3.20854741 12.09385365 2.44479617 18.56925379 1.25 25.25 C-0.66135188 36.50478308 -2.19487586 47.77680295 -3.60449219 59.10253906 C-4.05885742 62.73650837 -4.52687982 66.36842909 -5 70 C-5.15049805 71.21107422 -5.30099609 72.42214844 -5.45605469 73.66992188 C-5.61235352 74.82556641 -5.76865234 75.98121094 -5.9296875 77.171875 C-6.06358887 78.19893555 -6.19749023 79.22599609 -6.33544922 80.28417969 C-7.05835771 83.2384905 -7.88105765 84.83074312 -10 87 C-13.0625 87.4375 -13.0625 87.4375 -16 87 C-20.68698965 79.96951552 -17.62262833 69.9433066 -16.28076172 62.04272461 C-14.90879857 53.84035626 -13.97939726 45.60279283 -13.09057617 37.33569336 C-12.40450063 31.07349145 -11.52737604 24.88348522 -10.45288086 18.67602539 C-9.72478822 14.37380255 -9.20065099 10.04404919 -8.66015625 5.71484375 C-7.44654565 0.72395991 -5.04628992 -0.75694349 0 0 Z " fill="#FF5706" transform="translate(120,69)"/>
<path d="M0 0 C2.8125 0.9375 2.8125 0.9375 4.8125 3.9375 C4.90543664 7.16704816 4.40159596 9.18487913 2.39648438 11.74658203 C0.50960176 13.73399528 -1.43956718 15.62435121 -3.4375 17.5 C-4.10652344 18.14646484 -4.77554688 18.79292969 -5.46484375 19.45898438 C-6.76871118 20.71802336 -8.07660996 21.97290365 -9.38891602 23.22314453 C-13.81180299 27.19086665 -13.81180299 27.19086665 -17.25 31.9375 C-17.14630971 35.25558915 -15.45144394 36.56311977 -13.1875 38.9375 C-11.98946586 40.01159957 -10.77997281 41.07298496 -9.5625 42.125 C-8.10145359 43.39271324 -6.64340779 44.66388861 -5.1875 45.9375 C-3.81271484 47.13826172 -3.81271484 47.13826172 -2.41015625 48.36328125 C-1.49105469 49.21277344 -0.57195312 50.06226563 0.375 50.9375 C1.24253906 51.72125 2.11007813 52.505 3.00390625 53.3125 C4.8125 55.9375 4.8125 55.9375 4.77734375 59.625 C3.8125 62.9375 3.8125 62.9375 0.8125 64.9375 C-4.13896364 64.84534078 -6.88842043 61.89830494 -10.25 58.625 C-10.8078418 58.09463135 -11.36568359 57.5642627 -11.94042969 57.01782227 C-13.70066165 55.33559721 -15.44492731 53.63799558 -17.1875 51.9375 C-17.76677246 51.37869141 -18.34604492 50.81988281 -18.94287109 50.24414062 C-20.61549272 48.6288038 -22.2786948 47.00451286 -23.9375 45.375 C-24.45062744 44.87508545 -24.96375488 44.3751709 -25.49243164 43.86010742 C-29.13573551 40.22427061 -30.33306147 37.66258137 -30.4375 32.5625 C-30.46328125 31.81226562 -30.4890625 31.06203125 -30.515625 30.2890625 C-29.81790755 25.28875412 -26.37542577 21.87595491 -22.9140625 18.43359375 C-22.0890625 17.61052734 -21.2640625 16.78746094 -20.4140625 15.93945312 C-19.55554688 15.09318359 -18.69703125 14.24691406 -17.8125 13.375 C-16.53632812 12.09979492 -16.53632812 12.09979492 -15.234375 10.79882812 C-4.27490647 -0.0838217 -4.27490647 -0.0838217 0 0 Z " fill="#FE6D0A" transform="translate(90.1875,80.0625)"/>
<path d="M0 0 C3.6997111 1.25970135 6.04841627 3.56970661 8.79296875 6.2421875 C9.62973145 7.03774048 9.62973145 7.03774048 10.48339844 7.84936523 C12.2436304 9.53159029 13.98789606 11.22919192 15.73046875 12.9296875 C16.30974121 13.48849609 16.88901367 14.04730469 17.48583984 14.62304688 C19.15846147 16.2383837 20.82166355 17.86267464 22.48046875 19.4921875 C22.99359619 19.99210205 23.50672363 20.4920166 24.03540039 21.00708008 C28.22267426 25.18577201 28.83405309 27.91405244 28.9609375 33.796875 C28.41562703 38.84330749 26.12594831 41.90655331 22.58984375 45.3984375 C21.76613281 46.21699219 20.94242188 47.03554687 20.09375 47.87890625 C19.23136719 48.72066406 18.36898437 49.56242187 17.48046875 50.4296875 C16.63355469 51.27144531 15.78664062 52.11320312 14.9140625 52.98046875 C2.81430241 64.9296875 2.81430241 64.9296875 -1.51953125 64.9296875 C-4.26953125 63.9296875 -4.26953125 63.9296875 -6.26953125 60.9296875 C-6.67731219 57.90837404 -6.66507017 56.49325664 -4.89599609 53.97265625 C-4.26387207 53.36035156 -3.63174805 52.74804688 -2.98046875 52.1171875 C-1.93826172 51.09238281 -1.93826172 51.09238281 -0.875 50.046875 C-0.13894531 49.34820312 0.59710938 48.64953125 1.35546875 47.9296875 C2.06832031 47.23101562 2.78117188 46.53234375 3.515625 45.8125 C6.64940306 42.76497271 9.76028047 39.87113576 13.25390625 37.2421875 C15.93711916 35.17572328 15.93711916 35.17572328 16.3046875 32.3046875 C15.60664587 29.41754934 14.88927601 28.70997837 12.54296875 26.9296875 C8.44485185 23.5760127 4.58800578 20.05621208 0.79296875 16.3671875 C0.21329346 15.82513672 -0.36638184 15.28308594 -0.96362305 14.72460938 C-3.70011651 12.04535453 -5.12279644 10.41607538 -6.25 6.6796875 C-6.26953125 3.9296875 -6.26953125 3.9296875 -4.64453125 1.4921875 C-2.26953125 -0.0703125 -2.26953125 -0.0703125 0 0 Z " fill="#FF4408" transform="translate(136.26953125,80.0703125)"/>
<path d="M0 0 C2.44095616 0.84275103 4.75458531 1.65854265 7.0625 2.8125 C6.94898483 4.62575551 6.82137039 6.43813357 6.6875 8.25 C6.61789063 9.25933594 6.54828125 10.26867187 6.4765625 11.30859375 C6.33992188 12.13488281 6.20328125 12.96117188 6.0625 13.8125 C4.0625 14.8125 4.0625 14.8125 1.953125 14.17578125 C1.08171875 13.82902344 0.2103125 13.48226562 -0.6875 13.125 C-2.77038805 12.35296427 -4.85374674 11.58219744 -6.9375 10.8125 C-7.92621094 10.44125 -8.91492188 10.07 -9.93359375 9.6875 C-21.36315218 5.88231041 -32.99097547 6.00866625 -44.9375 5.8125 C-44.9375 2.1825 -44.9375 -1.4475 -44.9375 -5.1875 C-32.56221316 -11.37514342 -12.20417353 -3.9663564 0 0 Z " fill="#FF4805" transform="translate(144.9375,21.1875)"/>
<path d="M0 0 C11.66598708 3.55421472 20.55577047 11.49528172 29 20 C29.48460693 20.46148437 29.96921387 20.92296875 30.46850586 21.3984375 C33.24998933 24.28849279 33.98815008 25.82997939 34.26953125 29.8671875 C34.14483895 31.205989 33.99198278 32.54243722 33.8125 33.875 C33.74224609 34.56335937 33.67199219 35.25171875 33.59960938 35.9609375 C33.42435583 37.64337152 33.21558778 39.32225749 33 41 C29.2109375 40.3046875 29.2109375 40.3046875 27.3125 37.5625 C26.97992188 37.02496094 26.64734375 36.48742188 26.3046875 35.93359375 C19.18400506 25.38048654 9.11180571 17.92629638 -2 12 C-1.85962479 10.18706911 -1.71255111 8.3746557 -1.5625 6.5625 C-1.48128906 5.55316406 -1.40007812 4.54382813 -1.31640625 3.50390625 C-1 1 -1 1 0 0 Z " fill="#FF3805" transform="translate(152,25)"/>
<path d="M0 0 C-0.08378906 0.62648437 -0.16757813 1.25296875 -0.25390625 1.8984375 C-0.35574219 2.71570313 -0.45757812 3.53296875 -0.5625 4.375 C-0.66691406 5.18710938 -0.77132812 5.99921875 -0.87890625 6.8359375 C-1.18237328 9.04899186 -1.18237328 9.04899186 0 11 C-8.00574906 13.50179658 -15.71347277 14.16748869 -24.0625 14.125 C-24.82626953 14.12886719 -25.59003906 14.13273438 -26.37695312 14.13671875 C-31.02013212 14.1287749 -35.41997885 13.76637804 -40 13 C-39.01 12.67 -38.02 12.34 -37 12 C-37 9.36 -37 6.72 -37 4 C-37.66 3.67 -38.32 3.34 -39 3 C-37.84383179 2.92483154 -37.84383179 2.92483154 -36.66430664 2.84814453 C-33.12985513 2.61426455 -29.59621739 2.36971221 -26.0625 2.125 C-24.85013672 2.04636719 -23.63777344 1.96773437 -22.38867188 1.88671875 C-17.09479178 1.51370823 -11.97603632 1.11323748 -6.80859375 -0.1328125 C-3 -1 -3 -1 0 0 Z " fill="#FF5305" transform="translate(138,193)"/>
<path d="M0 0 C0.93169281 2.79507842 1.2892205 5.08501871 1.5625 8 C1.68818359 9.299375 1.68818359 9.299375 1.81640625 10.625 C2.2120236 15.7427734 2.2120236 15.7427734 0.4609375 17.8671875 C-1.67892358 19.92690397 -3.82829434 21.97386156 -6 24 C-6.81984375 24.82564453 -6.81984375 24.82564453 -7.65625 25.66796875 C-10.28586199 28.16470141 -11.57007072 29 -15.25 29 C-18 28 -18 28 -20 25 C-20.41704977 21.95328729 -20.39700222 20.55736187 -18.59472656 18.02709961 C-17.94987305 17.40843018 -17.30501953 16.78976074 -16.640625 16.15234375 C-15.93679687 15.46462891 -15.23296875 14.77691406 -14.5078125 14.06835938 C-13.76273438 13.36517578 -13.01765625 12.66199219 -12.25 11.9375 C-11.52039063 11.23044922 -10.79078125 10.52339844 -10.0390625 9.79492188 C-8.67261428 8.47195155 -7.30108428 7.15419491 -5.92285156 5.84350586 C-3.91991787 3.92322243 -1.95586835 1.96809933 0 0 Z " fill="#FF4504" transform="translate(150,116)"/>
<path d="M0 0 C0.82371094 -0.00128906 1.64742188 -0.00257812 2.49609375 -0.00390625 C3.35847656 -0.00003906 4.22085938 0.00382813 5.109375 0.0078125 C5.95628906 0.00394531 6.80320312 0.00007812 7.67578125 -0.00390625 C12.18378698 0.00310465 16.42324767 0.21949217 20.859375 1.1328125 C20.529375 2.1228125 20.199375 3.1128125 19.859375 4.1328125 C19.199375 4.1328125 18.539375 4.1328125 17.859375 4.1328125 C17.859375 6.7728125 17.859375 9.4128125 17.859375 12.1328125 C9.939375 12.1328125 2.019375 12.1328125 -6.140625 12.1328125 C-6.140625 8.5028125 -6.140625 4.8728125 -6.140625 1.1328125 C-3.84992384 -0.01253808 -2.54479908 0.00384079 0 0 Z " fill="#FF5A09" transform="translate(106.140625,14.8671875)"/>
<path d="M0 0 C0 3 0 3 0 3 Z M-4 4 C-3.34 4.33 -2.68 4.66 -2 5 C-2.80566406 5.64324219 -3.61132812 6.28648438 -4.44140625 6.94921875 C-10.76339128 12.19430442 -10.76339128 12.19430442 -13.5078125 19.625 C-13.21869696 22.8405289 -12.77202042 25.86709133 -12 29 C-14.875 28.6875 -14.875 28.6875 -18 28 C-20.1682079 24.74768815 -20.50613503 23.77192815 -20 20 C-18.53125 17.96362305 -18.53125 17.96362305 -16.5 16.01171875 C-15.778125 15.30595703 -15.05625 14.60019531 -14.3125 13.87304688 C-13.549375 13.15181641 -12.78625 12.43058594 -12 11.6875 C-11.236875 10.94693359 -10.47375 10.20636719 -9.6875 9.44335938 C-7.80239968 7.61716844 -5.90664431 5.80364241 -4 4 Z " fill="#FF5618" transform="translate(150,116)"/>
</svg>
